<svg xmlns="http://www.w3.org/2000/svg" width="84" height="128" viewBox="0 0 84 128"><g><g><g><g><g><path fill="#fff" d="M43.821 99.238c-.602 1.355-1.506 2.71-2.56 3.764-1.054 1.054-2.41 1.958-3.765 2.56-1.355.603-2.86.904-4.517.904-1.657 0-3.163-.301-4.518-.904-1.355-.602-2.71-1.506-3.765-2.56-1.054-1.054-1.957-2.409-2.56-3.764-.602-1.356-.903-2.862-.903-4.518 0-1.054.15-2.108.301-3.012.301-1.054.602-1.957 1.054-2.71.452-.904 1.054-1.657 1.807-2.41.603-.753 1.506-1.355 2.26-1.957l3.161-1.958 1.808-1.205v-25.45c0-.15 0-.3.15-.45 0-.152.15-.302.301-.453l.15-.15c.151 0 .151-.15.302-.15.15 0 .301-.151.602-.151.151 0 .452 0 .603.15.15 0 .15.15.3.15l.152.151c.15.15.3.301.3.452 0 .15.151.301.151.452v25.6l1.807 1.205 3.163 1.957c.903.603 1.656 1.205 2.259 1.958.752.753 1.204 1.506 1.807 2.41.451.903.753 1.806 1.054 2.71.3.903.3 1.957.3 3.012-.3 1.505-.601 3.011-1.204 4.367zm8.132-9.487a28.264 28.264 0 0 0-1.807-4.518c-.753-1.506-1.807-2.71-2.861-3.915-1.205-1.205-2.41-2.26-3.765-3.163l-1.355-.903V56.019c0-3.765-2.109-7.078-5.723-8.433-1.054-.452-2.258-.753-3.463-.753s-2.41.301-3.464.753c-3.463 1.506-5.722 4.668-5.722 8.433v21.233l-1.355.903c-1.356.904-2.711 1.958-3.765 3.163-1.205 1.204-2.108 2.56-2.861 3.915-.753 1.355-1.356 3.012-1.807 4.518-.452 1.505-.603 3.162-.603 4.818 0 2.56.603 5.12 1.506 7.53 1.054 2.41 2.41 4.517 4.217 6.325 1.807 1.807 3.915 3.312 6.324 4.216 2.26.904 4.82 1.506 7.53 1.506 2.56 0 5.12-.602 7.53-1.506 2.409-1.054 4.517-2.41 6.324-4.216 1.807-1.808 3.313-3.916 4.216-6.325.904-2.259 1.506-4.819 1.506-7.53 0-1.656-.15-3.313-.602-4.818z"/></g></g></g><g><g><g><path fill="#fff" d="M73.487 17.77H62.042c-2.108.15-3.915 1.806-3.915 3.915 0 2.108 1.657 3.915 3.915 3.915h11.445c2.108 0 3.915-1.656 3.915-3.915 0-2.109-1.656-3.916-3.915-3.916z"/></g></g></g><g><g><g><path fill="#fff" d="M73.487 44.424H62.042c-2.108 0-3.915 1.656-3.915 3.915 0 2.108 1.807 3.915 3.915 3.915h11.445c2.108 0 3.915-1.656 3.915-3.915 0-2.108-1.656-3.915-3.915-3.915z"/></g></g></g><g><g><g><path fill="#fff" d="M79.51 57.826H62.043c-2.108 0-3.915 1.656-3.915 3.915 0 2.108 1.657 3.915 3.915 3.915h17.469c2.108 0 3.915-1.656 3.915-3.915-.15-2.259-1.807-3.915-3.915-3.915z"/></g></g></g><g><g><g><path fill="#ffda44" d="M56.32 104.358c-1.205 3.011-3.162 5.873-5.572 8.282-4.517 4.518-10.993 7.379-17.92 7.379-3.463 0-6.776-.753-9.637-1.958-3.012-1.205-5.873-3.162-8.283-5.572-2.41-2.409-4.216-5.12-5.572-8.282-1.204-3.012-1.957-6.325-1.957-9.638 0-2.258.301-4.367.753-6.324.452-2.109 1.355-4.066 2.41-5.873a35.03 35.03 0 0 1 2.56-3.916 34.4 34.4 0 0 1 3.312-3.312l1.355-1.205v-51.35c0-1.958.452-3.916 1.055-5.723.752-1.657 1.656-3.162 2.86-4.518l.302-.3c1.355-1.356 3.012-2.56 4.819-3.314 1.807-.753 3.614-1.054 5.722-1.054 1.958 0 3.915.452 5.722 1.054 1.807.753 3.464 1.807 4.82 3.313l.3.301c1.205 1.356 2.26 2.861 2.862 4.518.753 1.807 1.054 3.614 1.054 5.722V74.24l1.355 1.205a34.399 34.399 0 0 1 3.313 3.313 35.03 35.03 0 0 1 2.56 3.915c1.054 1.807 1.807 3.915 2.41 5.873.451 1.958.752 4.066.752 6.325.603 3.313-.15 6.625-1.355 9.487zm8.885-17.62c-.904-3.01-1.958-5.57-3.313-7.98-.904-1.807-2.108-3.464-3.464-5.12-.903-1.054-1.957-2.109-2.86-3.163V22.588c0-3.012-.603-6.023-1.657-8.583C50.296 5.42 42.315 0 32.979 0 23.642 0 15.66 5.421 12.047 14.005c-1.054 2.71-1.656 5.571-1.656 8.583v48.038c-1.055.903-1.958 1.958-2.862 3.162-1.355 1.657-2.409 3.313-3.463 5.12-1.355 2.41-2.41 4.97-3.012 7.68C.301 89.298 0 92.01 0 94.871c0 4.517.904 8.734 2.56 12.649 1.656 4.066 4.216 7.68 7.228 10.692 3.012 3.012 6.626 5.42 10.692 7.228A32.172 32.172 0 0 0 33.13 128a32.998 32.998 0 0 0 23.34-9.638c3.012-3.011 5.422-6.626 7.229-10.691a32.172 32.172 0 0 0 2.56-12.65c0-2.861-.301-5.572-1.054-8.282z"/></g></g></g><g><g><g><path fill="#fff" d="M79.51 31.172H62.043c-2.108 0-3.915 1.656-3.915 3.915 0 2.108 1.657 3.915 3.915 3.915h17.469c2.108 0 3.915-1.656 3.915-3.915-.15-2.259-1.807-3.915-3.915-3.915z"/></g></g></g></g></g></svg>