<svg xmlns="http://www.w3.org/2000/svg" width="144" height="38">
  <path fill="#9b9b9b" d="M106.093 7.786V.208H144v7.578z"/>
  <path fill="#9b9b9b" d="M98.52 38.112h-7.58V.206h7.58z"/>
  <path fill="#9b9b9b" d="M45.453 38.114v-7.578h37.906v7.578z"/>
  <path fill="#9b9b9b" d="M53.035 38.112h-7.581V.206h7.581z"/>
  <path fill="#9b9b9b" d="M128.845 38.112h-7.582V.206h7.582z"/>
  <g>
    <path fill="#9b9b9b" d="M-.032 38.114v-7.578h37.907v7.578z"/>
  </g>
  <g>
    <path fill="#9b9b9b" d="M-.032 22.942v-7.578h37.907v7.578z"/>
  </g>
  <g>
    <path fill="#9b9b9b" d="M-.032 7.786V.208h37.907v7.578z"/>
  </g>
  <g>
    <path fill="#9b9b9b" d="M-.032 7.786V.208h37.907v7.578z"/>
    <path fill="#9b9b9b" d="M-.032 22.942v-7.578h37.907v7.578z"/>
    <path fill="#9b9b9b" d="M-.032 38.114v-7.578h37.907v7.578z"/>
    <path fill="#9b9b9b" d="M128.845 38.112h-7.582V.206h7.582z"/>
    <g>
      <path fill="#9b9b9b" d="M53.035 38.112h-7.581V.206h7.581z"/>
    </g>
    <g>
      <path fill="#9b9b9b" d="M45.453 38.114v-7.578h37.906v7.578z"/>
    </g>
    <g>
      <path fill="#9b9b9b" d="M98.52 38.112h-7.58V.206h7.58z"/>
    </g>
    <g>
      <path fill="#9b9b9b" d="M106.093 7.786V.208H144v7.578z"/>
    </g>
  </g>
  <g>
    <path fill="#9b9b9b" d="M-.032 7.786V.208h37.907v7.578z"/>
    <path fill="#9b9b9b" d="M-.032 22.942v-7.578h37.907v7.578z"/>
    <path fill="#9b9b9b" d="M-.032 38.114v-7.578h37.907v7.578z"/>
    <path fill="#9b9b9b" d="M128.845 38.112h-7.582V.206h7.582z"/>
    <g>
      <path fill="#9b9b9b" d="M53.035 38.112h-7.581V.206h7.581z"/>
    </g>
    <g>
      <path fill="#9b9b9b" d="M45.453 38.114v-7.578h37.906v7.578z"/>
    </g>
    <g>
      <path fill="#9b9b9b" d="M98.52 38.112h-7.58V.206h7.58z"/>
    </g>
    <g>
      <path fill="#9b9b9b" d="M106.093 7.786V.208H144v7.578z"/>
    </g>
  </g>
</svg>
