<svg xmlns="http://www.w3.org/2000/svg" width="109" height="128" viewBox="0 0 109 128"><g><g><g><path fill="#ffda44" d="M96.193 82.88c-6.59 17.868-20.042 30.139-41.125 37.512a1.688 1.688 0 0 1-1.135 0c-21.105-7.36-34.566-19.623-41.15-37.492-5.76-15.625-5.433-32.77-5.145-47.895l.002-.084c.058-1.3.097-2.661.119-4.157.047-3.134 2.543-5.727 5.682-5.902 8.328-.464 15.645-2.074 22.367-4.92 6.714-2.841 12.677-6.847 18.228-12.246a.693.693 0 0 1 .93 0c5.551 5.399 11.514 9.405 18.227 12.247 6.723 2.845 14.04 4.455 22.368 4.92 3.14.174 5.636 2.767 5.682 5.902.022 1.504.061 2.865.12 4.156.287 15.143.606 32.3-5.17 47.96zm12.679-48.15l-.004-.1c-.056-1.23-.093-2.53-.115-3.977-.105-7.058-5.715-12.896-12.774-13.29-14.716-.822-26.101-5.62-35.829-15.102l-.083-.08a8.191 8.191 0 0 0-11.133 0l-.083.08c-9.727 9.481-21.112 14.28-35.829 15.102C5.965 17.757.353 23.595.25 30.653a131.92 131.92 0 0 1-.115 3.977l-.006.232c-.286 15.006-.642 33.683 5.606 50.635 3.436 9.322 8.639 17.426 15.464 24.087 7.774 7.586 17.955 13.608 30.262 17.9.4.14.816.252 1.24.337a9.2 9.2 0 0 0 4.847-.34c12.292-4.298 22.463-10.324 30.23-17.909 6.821-6.663 12.025-14.768 15.463-24.092 6.271-17.003 5.917-35.715 5.632-50.75z"/></g><g><path fill="#fff" d="M54.499 88.39c-13.448 0-24.389-10.94-24.389-24.388 0-13.448 10.94-24.389 24.389-24.389 13.447 0 24.388 10.94 24.388 24.39 0 13.447-10.94 24.388-24.388 24.388zm0-56.287c-17.59 0-31.9 14.31-31.9 31.9 0 17.589 14.31 31.9 31.9 31.9 17.589 0 31.9-14.311 31.9-31.9 0-17.59-14.311-31.9-31.9-31.9z"/></g><g><path fill="#fff" d="M63.667 54.099L48.85 68.915l-4.021-4.021a3.756 3.756 0 0 0-5.312 5.31l6.678 6.678a3.743 3.743 0 0 0 2.655 1.1c.961 0 1.922-.367 2.656-1.1l17.472-17.473a3.756 3.756 0 0 0-5.311-5.31z"/></g></g></g></svg>