<svg xmlns="http://www.w3.org/2000/svg" width="111" height="128" viewBox="0 0 111 128"><g><g><g><g><path fill="#ffda44" d="M55.428 115.517c-22.827 0-41.413-18.586-41.413-41.413 0-22.828 18.586-41.414 41.413-41.414 22.828 0 41.414 18.586 41.414 41.414 0 22.827-18.586 41.413-41.414 41.413zm45.828-77.379c1.207 1.207 3.138 1.207 4.31 0l4.31-4.31c1.208-1.207 1.208-3.138 0-4.31l-9.758-9.76c-1.207-1.206-3.138-1.206-4.31 0l-4.31 4.311c-1.207 1.207-1.207 3.138 0 4.31l.413.414-3.034 3.035c-7.655-6.07-16.931-10.104-27.104-11.276v-5.517h3.345c1.69 0 3.035-1.38 3.035-3.035V3.035c0-1.69-1.38-3.035-3.035-3.035h-19.38a3.039 3.039 0 0 0-3.034 3.035V12c0 1.69 1.38 3.035 3.035 3.035h3.345v5.517A53.84 53.84 0 0 0 21.98 31.828l-3.034-3.035.414-.414c1.206-1.207 1.206-3.138 0-4.31l-4.31-4.31c-1.208-1.207-3.139-1.207-4.311 0L.98 29.517c-1.207 1.207-1.207 3.138 0 4.31l4.31 4.311c1.207 1.207 3.138 1.207 4.31 0l.415-.414 3.034 3.035a53.601 53.601 0 0 0-11.552 33.31C1.497 103.793 25.704 128 55.43 128c29.724 0 53.93-24.207 53.93-53.931 0-12.552-4.344-24.138-11.551-33.31l3.034-3.035z"/></g><g><path fill="#fff" d="M58.877 75c-.517 1.931-2.483 3.069-4.38 2.586-1.93-.517-3.069-2.482-2.586-4.379.517-1.931 2.483-3.069 4.38-2.586 1.93.483 3.069 2.483 2.586 4.38zm22.586-16.31c-.897-1.483-2.759-2.069-4.31-1.276l-18.656 9.138a8.31 8.31 0 0 0-7.31.517c-3.896 2.31-5.207 7.345-2.896 11.242 2.31 3.896 7.344 5.207 11.24 2.896a8.202 8.202 0 0 0 3.966-6.138l17-11.965a3.284 3.284 0 0 0 .966-4.414z"/></g><g><path fill="#fff" d="M67.084 53.552c1.62.93 3.69.345 4.586-1.276a3.345 3.345 0 0 0-1.276-4.586c-1.62-.931-3.655-.345-4.586 1.276a3.377 3.377 0 0 0 .034 3.379c.31.448.724.897 1.242 1.207z"/></g><g><path fill="#fff" d="M55.222 50.448c1.862 0 3.344-1.517 3.344-3.379s-1.517-3.345-3.379-3.345-3.345 1.517-3.345 3.38c0 .62.173 1.206.449 1.69.586 1 1.69 1.69 2.93 1.654z"/></g><g><path fill="#fff" d="M55.67 97.828a3.407 3.407 0 0 0-3.345 3.414c0 .62.172 1.172.448 1.655.587 1 1.69 1.69 2.931 1.655a3.356 3.356 0 0 0 3.31-3.414c.035-1.793-1.482-3.31-3.344-3.31z"/></g><g><path fill="#fff" d="M67.463 94.552c-1.586.931-2.138 3-1.172 4.586.93 1.621 3 2.138 4.62 1.173 1.586-.931 2.138-3 1.173-4.586a3.407 3.407 0 0 0-4.621-1.173z"/></g><g><path fill="#fff" d="M80.635 84.552c-1.62-.896-3.69-.345-4.586 1.276-.62 1.103-.552 2.345.035 3.38.276.482.724.93 1.241 1.206 1.62.931 3.69.345 4.586-1.276.897-1.62.345-3.69-1.276-4.586z"/></g><g><path fill="#fff" d="M31.704 74.414c0-1.862-1.551-3.345-3.379-3.345a3.407 3.407 0 0 0-3.345 3.414c0 .62.173 1.173.448 1.655.587 1 1.69 1.69 2.932 1.655 1.896 0 3.379-1.517 3.344-3.379z"/></g><g><path fill="#fff" d="M30.428 85.035c-1.586.93-2.137 3-1.172 4.586a3.362 3.362 0 0 0 4.62 1.172c1.587-.93 2.104-3 1.173-4.62-.965-1.552-3.034-2.104-4.62-1.138z"/></g><g><path fill="#fff" d="M79.118 73.931c0 .62.173 1.173.483 1.69.586 1 1.69 1.655 2.93 1.655 1.863 0 3.346-1.552 3.346-3.38 0-1.861-1.517-3.344-3.38-3.344-1.896 0-3.413 1.552-3.379 3.38z"/></g><g><path fill="#fff" d="M30.187 63.828c1.62.93 3.69.344 4.586-1.276a3.365 3.365 0 0 0-1.31-4.586 3.384 3.384 0 0 0-4.586 1.275 3.466 3.466 0 0 0 .034 3.38c.31.483.724.897 1.276 1.207z"/></g><g><path fill="#fff" d="M43.325 53.793s.035 0 .035-.034c.034 0 .034 0 .034-.035h.034c1.587-.93 2.104-3 1.173-4.586-.931-1.62-3-2.138-4.62-1.207 0 0-.035 0-.035.035-.035 0-.035.034-.07.034-1.585.931-2.137 3-1.172 4.586.966 1.621 3.035 2.139 4.621 1.207z"/></g><g><path fill="#fff" d="M43.773 94.793a3.345 3.345 0 0 0-4.586 1.276 3.377 3.377 0 0 0 .035 3.38c.275.482.724.93 1.241 1.24 1.62.897 3.69.311 4.586-1.275a3.385 3.385 0 0 0-1.276-4.62z"/></g></g></g></g></svg>